<svg xmlns="http://www.w3.org/2000/svg" viewBox="0 0 203.32 135.06"><defs><style>.cls-1{fill:#9cc;}.cls-2{fill:#020a17;}.cls-3{fill:#fff7c6;}</style></defs><title>iaLogo</title><g id="Layer_2" data-name="Layer 2"><g id="Layer_1-2" data-name="Layer 1"><g id="ESyMAP.tif"><path class="cls-1" d="M1.37,1.15C3.08,1,4.71.72,6.35.71q19-.14,38-.18L84.1.41,142.19.17c7.66,0,15.32-.08,23-.17,1.06,0,1.52.23,1.58,1.36a6.4,6.4,0,0,0,3.41,5.47c2.1,1.23,2.26,2,1.5,4.24a11.07,11.07,0,0,1-1,2.34,4.75,4.75,0,0,0-.67,3.5c.73,4.19,1.41,8.38,2.08,12.58a4.23,4.23,0,0,0,3.37,3.67c2.37.68,4.67,1.57,7,2.36a5.05,5.05,0,0,1,3.47,4,22.67,22.67,0,0,0,.9,2.92,7,7,0,0,0,3.12,3.74,14.13,14.13,0,0,1,2.75,1.84,6.67,6.67,0,0,1,1.83,2.65c.63,2.07,1.65,3.94,3.55,4.78,4,1.77,4.61,5.2,5.14,8.86.62,4.3-1.39,7.51-4,10.59a7.29,7.29,0,0,0-1.28,2.82A5,5,0,0,1,196.16,81a4.7,4.7,0,0,0-1,1.16,9,9,0,0,1-4.54,3.33c-1.66.58-3.13,1.69-4.77,2.34a7.87,7.87,0,0,1-3.21.51c-6.35-.3-9.09,4.28-8.8,9.6a3.28,3.28,0,0,0,.84,1.64,9.28,9.28,0,0,0,1.44,1.26c1.78,1.45,2.72,3.15,2.12,5.58-.56,2.26-.74,4.62-1.31,6.88a16.25,16.25,0,0,1-8,10.7c-2,1.12-3.25,2.76-2.93,5.33.26,2.11-1,3.82-2,5.52a1,1,0,0,1-.93.1,10.51,10.51,0,0,1-1.61-1.43c-.29-.3-.42-.76-.72-1a87.57,87.57,0,0,1-6.25-6.26,4.07,4.07,0,0,0-2.81-.91q-28.54,0-57.07.06c-7.4,0-14.81.09-22.21.11-15.66,0-31.32,0-47,.1a1.8,1.8,0,0,1-2-1.37c-.76-2.18-1.59-4.28-.78-6.68a3.13,3.13,0,0,0-1.13-3.22c-2.15-2-1.59-5.07.12-7,1.18-1.34,1.32-2.2.29-3.63a16.67,16.67,0,0,0-3.08-3.37,4.07,4.07,0,0,1-1.5-4.52,17.11,17.11,0,0,1,.7-2.18A7.43,7.43,0,0,0,15.89,85c-2.4-2.05-2.79-4.58-2.22-7.39a2.23,2.23,0,0,0-.86-2.67,7.73,7.73,0,0,1-3.17-5A26,26,0,0,0,7.22,64.2a6,6,0,0,1-.43-4.32c.33-1.49.78-3,1.16-4.44a1.85,1.85,0,0,0-1.43-2.55C3.6,52.28,2.95,50.49,3,47.7A25.15,25.15,0,0,0,.69,36c-1.29-2.69-.57-5.43.48-8C2,26,3,24.06,3.84,22.07A7.57,7.57,0,0,0,4,16.25,54.7,54.7,0,0,1,2.47,11a5.47,5.47,0,0,1-.18-2.27,13.36,13.36,0,0,0-.76-6.76C1.46,1.76,1.44,1.55,1.37,1.15Z"/></g><rect class="cls-2" x="54.16" y="11.27" width="7" height="12" transform="translate(74.93 -40.39) rotate(90)"/><rect class="cls-2" x="54.66" y="13.77" width="6" height="93"/><rect class="cls-2" x="70.66" y="81.77" width="6" height="44" transform="translate(177.43 30.11) rotate(90)"/><rect class="cls-2" x="86.66" y="13.77" width="6" height="93"/><rect class="cls-2" x="102.66" y="38.77" width="6" height="38" transform="translate(163.43 -47.89) rotate(90)"/><rect class="cls-2" x="86.16" y="11.27" width="7" height="12" transform="translate(106.93 -72.39) rotate(90)"/><rect class="cls-2" x="118.16" y="11.27" width="7" height="12" transform="translate(138.93 -104.39) rotate(90)"/><rect class="cls-2" x="118.66" y="97.77" width="6" height="12" transform="translate(225.43 -17.89) rotate(90)"/><rect class="cls-2" x="86.66" y="97.77" width="6" height="12" transform="translate(193.43 14.11) rotate(90)"/><rect class="cls-2" x="118.66" y="13.77" width="6" height="93"/><polygon class="cls-3" points="101.84 79.81 102.8 82.77 105.91 82.77 103.39 84.77 104.36 87.82 101.84 86.03 99.32 87.88 100.28 84.76 97.76 82.77 100.87 82.77 101.84 79.81"/></g></g></svg>